<svg width="90" height="90" viewBox="0 0 90 90" fill="none" xmlns="http://www.w3.org/2000/svg">
<path d="M67.3594 14.9688H63.6172V11.2266C63.6172 10.2341 63.2229 9.28223 62.5211 8.58044C61.8193 7.87864 60.8675 7.48438 59.875 7.48438C58.8825 7.48438 57.9307 7.87864 57.2289 8.58044C56.5271 9.28223 56.1328 10.2341 56.1328 11.2266V14.9688H33.6797V11.2266C33.6797 10.2341 33.2854 9.28223 32.5836 8.58044C31.8818 7.87864 30.93 7.48438 29.9375 7.48438C28.945 7.48438 27.9932 7.87864 27.2914 8.58044C26.5896 9.28223 26.1953 10.2341 26.1953 11.2266V14.9688H22.4531C19.4757 14.9688 16.6201 16.1515 14.5147 18.2569C12.4094 20.3623 11.2266 23.2178 11.2266 26.1953V71.1016C11.2266 74.079 12.4094 76.9346 14.5147 79.0399C16.6201 81.1453 19.4757 82.3281 22.4531 82.3281H67.3594C70.3368 82.3281 73.1924 81.1453 75.2978 79.0399C77.4031 76.9346 78.5859 74.079 78.5859 71.1016V26.1953C78.5859 23.2178 77.4031 20.3623 75.2978 18.2569C73.1924 16.1515 70.3368 14.9688 67.3594 14.9688ZM29.9375 63.6172C29.1974 63.6172 28.4739 63.3977 27.8585 62.9865C27.2431 62.5753 26.7634 61.9909 26.4802 61.3071C26.1969 60.6233 26.1228 59.8708 26.2672 59.1449C26.4116 58.419 26.768 57.7522 27.2914 57.2289C27.8147 56.7055 28.4815 56.3491 29.2074 56.2047C29.9333 56.0603 30.6858 56.1344 31.3696 56.4177C32.0534 56.7009 32.6378 57.1806 33.049 57.796C33.4602 58.4114 33.6797 59.1349 33.6797 59.875C33.6797 60.8675 33.2854 61.8193 32.5836 62.5211C31.8818 63.2229 30.93 63.6172 29.9375 63.6172ZM59.875 63.6172H44.9062C43.9138 63.6172 42.9619 63.2229 42.2601 62.5211C41.5583 61.8193 41.1641 60.8675 41.1641 59.875C41.1641 58.8825 41.5583 57.9307 42.2601 57.2289C42.9619 56.5271 43.9138 56.1328 44.9062 56.1328H59.875C60.8675 56.1328 61.8193 56.5271 62.5211 57.2289C63.2229 57.9307 63.6172 58.8825 63.6172 59.875C63.6172 60.8675 63.2229 61.8193 62.5211 62.5211C61.8193 63.2229 60.8675 63.6172 59.875 63.6172ZM71.1016 41.1641H18.7109V26.1953C18.7109 25.2028 19.1052 24.251 19.807 23.5492C20.5088 22.8474 21.4606 22.4531 22.4531 22.4531H26.1953V26.1953C26.1953 27.1878 26.5896 28.1396 27.2914 28.8414C27.9932 29.5432 28.945 29.9375 29.9375 29.9375C30.93 29.9375 31.8818 29.5432 32.5836 28.8414C33.2854 28.1396 33.6797 27.1878 33.6797 26.1953V22.4531H56.1328V26.1953C56.1328 27.1878 56.5271 28.1396 57.2289 28.8414C57.9307 29.5432 58.8825 29.9375 59.875 29.9375C60.8675 29.9375 61.8193 29.5432 62.5211 28.8414C63.2229 28.1396 63.6172 27.1878 63.6172 26.1953V22.4531H67.3594C68.3519 22.4531 69.3037 22.8474 70.0055 23.5492C70.7073 24.251 71.1016 25.2028 71.1016 26.1953V41.1641Z" fill="#37383C"/>
</svg>
