<svg width="151" height="151" viewBox="0 0 151 151" fill="none" xmlns="http://www.w3.org/2000/svg">
<path d="M51.3277 125.266C60.54 125.574 69.7206 124.033 78.3269 120.732C86.9333 117.432 94.7908 112.44 101.435 106.052C108.079 99.6629 113.375 92.0071 117.01 83.5368C120.646 75.0664 122.546 65.9533 122.599 56.736C126.821 51.5116 129.956 45.496 131.819 39.0428C131.958 38.533 131.947 37.9938 131.787 37.4902C131.627 36.9865 131.324 36.54 130.916 36.2042C130.508 35.8685 130.012 35.6579 129.487 35.5978C128.961 35.5377 128.43 35.6307 127.957 35.8655C125.748 36.9287 123.262 37.2721 120.847 36.8474C118.433 36.4227 116.213 35.2513 114.5 33.4981C112.313 31.1032 109.667 29.1716 106.72 27.8178C103.773 26.464 100.584 25.7155 97.3422 25.6168C94.1004 25.518 90.8718 26.0709 87.8477 27.2428C84.8235 28.4147 82.0653 30.1817 79.7365 32.439C76.548 35.527 74.2125 39.3873 72.9571 43.6448C71.7017 47.9023 71.5691 52.4121 72.572 56.736C51.7015 57.982 37.3725 48.0763 25.9093 34.4949C25.565 34.1049 25.1145 33.8237 24.6129 33.6855C24.1113 33.5473 23.5803 33.5581 23.0848 33.7167C22.5893 33.8752 22.1507 34.1747 21.8225 34.5784C21.4943 34.9821 21.2908 35.4727 21.2368 35.9901C19.053 48.1039 20.6284 60.5958 25.7512 71.7881C30.8741 82.9805 39.2991 92.3372 49.8948 98.6016C42.7904 106.749 32.8135 111.838 22.0467 112.806C21.4699 112.902 20.9374 113.175 20.5238 113.589C20.1102 114.002 19.8362 114.534 19.7401 115.111C19.6439 115.688 19.7305 116.28 19.9878 116.805C20.245 117.33 20.6599 117.762 21.1745 118.039C30.5415 122.72 40.8566 125.192 51.3277 125.266Z" fill="#2754F4"/>
</svg>
