<svg width="16" height="16" viewBox="0 0 16 16" fill="none" xmlns="http://www.w3.org/2000/svg">
<path d="M5.38663 13.3333C6.37243 13.3663 7.35484 13.2014 8.27579 12.8482C9.19675 12.4951 10.0376 11.9609 10.7486 11.2772C11.4596 10.5936 12.0263 9.77434 12.4153 8.86793C12.8043 7.96153 13.0076 6.98634 13.0133 6.00001C13.4651 5.44095 13.8005 4.79723 14 4.10668C14.0149 4.05212 14.0137 3.99442 13.9965 3.94052C13.9794 3.88663 13.947 3.83885 13.9033 3.80292C13.8596 3.76699 13.8065 3.74446 13.7503 3.73803C13.6941 3.7316 13.6373 3.74155 13.5866 3.76668C13.3503 3.88045 13.0842 3.91719 12.8259 3.87175C12.5675 3.8263 12.33 3.70094 12.1466 3.51334C11.9126 3.25706 11.6295 3.05036 11.3141 2.90549C10.9988 2.76063 10.6575 2.68053 10.3106 2.66996C9.9637 2.6594 9.61821 2.71857 9.2946 2.84397C8.97098 2.96937 8.67583 3.15845 8.42663 3.40001C8.08543 3.73045 7.83551 4.14354 7.70117 4.59913C7.56683 5.05472 7.55264 5.53731 7.65997 6.00001C5.42663 6.13334 3.8933 5.07334 2.66663 3.62001C2.62978 3.57828 2.58158 3.54818 2.5279 3.53339C2.47423 3.5186 2.41741 3.51976 2.36438 3.53673C2.31136 3.5537 2.26442 3.58574 2.2293 3.62894C2.19419 3.67214 2.17241 3.72464 2.16663 3.78001C1.93295 5.07629 2.10152 6.41304 2.64971 7.61072C3.1979 8.8084 4.09946 9.80966 5.2333 10.48C4.47306 11.3519 3.40544 11.8965 2.2533 12C2.19157 12.0102 2.13459 12.0395 2.09033 12.0837C2.04607 12.128 2.01675 12.1849 2.00646 12.2466C1.99618 12.3084 2.00544 12.3718 2.03297 12.4279C2.06049 12.4841 2.1049 12.5303 2.15997 12.56C3.16231 13.0609 4.26612 13.3255 5.38663 13.3333Z" fill="#2754F4"/>
</svg>
