<svg width="150" height="150" viewBox="0 0 150 150" fill="none" xmlns="http://www.w3.org/2000/svg">
<rect width="150" height="150" rx="75" fill="none"/>
<path d="M49.3371 110V73.4335L38.0876 63.0585L28 57.3013V103.547C28 107.118 30.8698 110 34.4011 110H49.3371Z" fill="#4285F4"/>
<path d="M100.546 110H115.482C119.024 110 121.883 107.107 121.883 103.547V57.3013L110.458 63.896L100.546 73.4335V110Z" fill="#34A853"/>
<path d="M49.3371 73.4337L47.8064 59.146L49.3371 45.4712L74.9417 64.8298L100.546 45.4712L102.259 58.4076L100.546 73.4337L74.9417 92.7923L49.3371 73.4337Z" fill="#EA4335"/>
<path d="M100.546 45.4712V73.4337L121.883 57.3015V48.6976C121.883 40.7176 112.847 36.1683 106.521 40.9542L100.546 45.4712Z" fill="#FBBC04"/>
<path d="M28 57.3015L37.8133 64.7209L49.3371 73.4337V45.4712L43.3627 40.9542C37.0256 36.1683 28 40.7176 28 48.6976V57.3015Z" fill="#C5221F"/>
</svg>
