<svg width="91" height="91" viewBox="0 0 91 91" fill="none" xmlns="http://www.w3.org/2000/svg">
<path d="M38.2344 53.1719H53.2031V79.3672H38.2344V53.1719Z" fill="#FF3C6C"/>
<path d="M77.228 38.8767L48.3757 9.3883C48.0278 9.03756 47.6139 8.75916 47.1579 8.56917C46.7019 8.37919 46.2128 8.28137 45.7188 8.28137C45.2247 8.28137 44.7356 8.37919 44.2796 8.56917C43.8236 8.75916 43.4097 9.03756 43.0618 9.3883L14.2095 38.9142C13.5114 39.6179 12.96 40.4534 12.5874 41.3721C12.2148 42.2907 12.0284 43.2742 12.0391 44.2655V75.625C12.0362 77.5407 12.7679 79.3846 14.0837 80.7769C15.3995 82.1692 17.199 83.004 19.1118 83.1094H30.75V49.4297C30.75 48.4372 31.1443 47.4854 31.8461 46.7836C32.5479 46.0818 33.4997 45.6875 34.4922 45.6875H56.9453C57.9378 45.6875 58.8896 46.0818 59.5914 46.7836C60.2932 47.4854 60.6875 48.4372 60.6875 49.4297V83.1094H72.3257C74.2385 83.004 76.038 82.1692 77.3538 80.7769C78.6696 79.3846 79.4013 77.5407 79.3984 75.625V44.2655C79.4014 42.2557 78.6231 40.3234 77.228 38.8767Z" fill="#FF5353"/>
</svg>
