<svg width="87" height="87" viewBox="0 0 87 87" fill="none" xmlns="http://www.w3.org/2000/svg">
<path d="M62.553 79.09C47.8757 79.071 33.8049 73.232 23.4265 62.8535C13.048 52.4751 7.20903 38.4043 7.19 23.727C7.19 19.3411 8.93229 15.1349 12.0336 12.0336C15.1349 8.93229 19.3411 7.19 23.727 7.19C24.6557 7.18293 25.5829 7.26722 26.4952 7.44165C27.377 7.57215 28.244 7.78889 29.0836 8.08875C29.674 8.29593 30.2002 8.65365 30.61 9.12653C31.0199 9.59941 31.2992 10.1711 31.4203 10.785L36.3455 32.355C36.4782 32.9405 36.4622 33.5499 36.2989 34.1276C36.1357 34.7054 35.8303 35.233 35.4108 35.6624C34.9434 36.1657 34.9075 36.2017 30.4856 38.5025C34.0267 46.2707 40.2396 52.5091 47.9933 56.082C50.33 51.6242 50.366 51.5883 50.8693 51.1209C51.2987 50.7013 51.8263 50.396 52.404 50.2327C52.9817 50.0694 53.5912 50.0534 54.1767 50.1862L75.7467 55.1114C76.3409 55.2492 76.8903 55.5361 77.3431 55.9449C77.796 56.3537 78.1373 56.871 78.3351 57.4481C78.6385 58.3014 78.867 59.1795 79.0181 60.0724C79.1628 60.976 79.2349 61.8896 79.2338 62.8046C79.1675 67.1718 77.3762 71.3354 74.251 74.3865C71.1258 77.4376 66.9205 79.1285 62.553 79.09Z" fill="#2EDE1F"/>
</svg>
